<svg width="24" height="32" viewBox="0 0 24 32" fill="none" xmlns="http://www.w3.org/2000/svg">
<path d="M21.8952 14.4165C22.1821 14.4165 22.4594 14.5204 22.6757 14.7091C22.8919 14.8977 23.0326 15.1582 23.0716 15.4425L23.0827 15.604V16.3957C23.0829 19.093 22.0632 21.6907 20.2282 23.6676C18.3931 25.6445 15.8783 26.8545 13.1884 27.0547L13.1868 30.6457C13.1868 30.9465 13.0725 31.2362 12.8671 31.456C12.6617 31.6759 12.3805 31.8095 12.0803 31.83C11.7801 31.8506 11.4834 31.7564 11.25 31.5665C11.0166 31.3766 10.8639 31.1052 10.8229 30.8072L10.8118 30.6457V27.0547C8.18591 26.8597 5.7244 25.7021 3.89935 23.804C2.0743 21.9059 1.0142 19.4009 0.922349 16.7693L0.916016 16.3957V15.604C0.916108 15.3031 1.0304 15.0135 1.23581 14.7937C1.44121 14.5738 1.72241 14.4401 2.02258 14.4196C2.32275 14.3991 2.61951 14.4933 2.85291 14.6832C3.0863 14.8731 3.23892 15.1444 3.27993 15.4425L3.29102 15.604V16.3957C3.29083 18.5412 4.12024 20.6037 5.60575 22.1518C7.09126 23.6998 9.11781 24.6136 11.2615 24.7018L11.6035 24.7082H12.3952C14.5407 24.7084 16.6032 23.8789 18.1513 22.3934C19.6993 20.9079 20.6131 18.8814 20.7013 16.7377L20.7077 16.3957V15.604C20.7077 15.2891 20.8328 14.987 21.0555 14.7643C21.2782 14.5416 21.5802 14.4165 21.8952 14.4165ZM11.9993 0.166504C13.6791 0.166504 15.29 0.833764 16.4777 2.02149C17.6654 3.20922 18.3327 4.82013 18.3327 6.49984V15.9998C18.3327 17.6795 17.6654 19.2905 16.4777 20.4782C15.29 21.6659 13.6791 22.3332 11.9993 22.3332C10.3196 22.3332 8.70874 21.6659 7.52101 20.4782C6.33328 19.2905 5.66602 17.6795 5.66602 15.9998V6.49984C5.66602 4.82013 6.33328 3.20922 7.52101 2.02149C8.70874 0.833764 10.3196 0.166504 11.9993 0.166504ZM11.9993 2.5415C10.9495 2.5415 9.94272 2.95854 9.20039 3.70087C8.45805 4.4432 8.04102 5.45002 8.04102 6.49984V15.9998C8.04102 17.0497 8.45805 18.0565 9.20039 18.7988C9.94272 19.5411 10.9495 19.9582 11.9993 19.9582C13.0492 19.9582 14.056 19.5411 14.7983 18.7988C15.5406 18.0565 15.9577 17.0497 15.9577 15.9998V6.49984C15.9577 5.45002 15.5406 4.4432 14.7983 3.70087C14.056 2.95854 13.0492 2.5415 11.9993 2.5415Z" fill="#595959"/>
</svg>
