<svg width="26" height="26" viewBox="0 0 26 26" fill="none" xmlns="http://www.w3.org/2000/svg">
<path d="M21.8375 4.16253C19.7865 2.09815 17.0796 0.814044 14.1833 0.53158C11.287 0.249116 8.38296 0.986 5.97176 2.61519C3.56055 4.24438 1.79332 6.66379 0.974731 9.45629C0.156141 12.2488 0.337495 15.2394 1.48753 17.9125C1.60739 18.161 1.64672 18.4407 1.60003 18.7125L0.500026 24C0.457646 24.2027 0.4663 24.4128 0.52521 24.6114C0.58412 24.8099 0.69144 24.9907 0.837526 25.1375C0.957281 25.2564 1.09987 25.3498 1.25669 25.4121C1.41352 25.4744 1.58133 25.5043 1.75003 25.5H2.00003L7.35003 24.425C7.62194 24.3923 7.89768 24.4311 8.15003 24.5375C10.8232 25.6876 13.8138 25.8689 16.6063 25.0503C19.3988 24.2317 21.8182 22.4645 23.4474 20.0533C25.0766 17.6421 25.8134 14.738 25.531 11.8418C25.2485 8.94548 23.9644 6.23851 21.9 4.18753L21.8375 4.16253ZM8.00003 14.25C7.7528 14.25 7.51112 14.1767 7.30556 14.0394C7.1 13.902 6.93979 13.7068 6.84518 13.4784C6.75057 13.25 6.72581 12.9986 6.77404 12.7562C6.82228 12.5137 6.94133 12.291 7.11614 12.1161C7.29096 11.9413 7.51369 11.8223 7.75616 11.774C7.99864 11.7258 8.24997 11.7506 8.47838 11.8452C8.70679 11.9398 8.90201 12.1 9.03936 12.3056C9.17671 12.5111 9.25003 12.7528 9.25003 13C9.25003 13.3315 9.11833 13.6495 8.88391 13.8839C8.64949 14.1183 8.33155 14.25 8.00003 14.25ZM13 14.25C12.7528 14.25 12.5111 14.1767 12.3056 14.0394C12.1 13.902 11.9398 13.7068 11.8452 13.4784C11.7506 13.25 11.7258 12.9986 11.774 12.7562C11.8223 12.5137 11.9413 12.291 12.1161 12.1161C12.291 11.9413 12.5137 11.8223 12.7562 11.774C12.9986 11.7258 13.25 11.7506 13.4784 11.8452C13.7068 11.9398 13.902 12.1 14.0394 12.3056C14.1767 12.5111 14.25 12.7528 14.25 13C14.25 13.3315 14.1183 13.6495 13.8839 13.8839C13.6495 14.1183 13.3315 14.25 13 14.25ZM18 14.25C17.7528 14.25 17.5111 14.1767 17.3056 14.0394C17.1 13.902 16.9398 13.7068 16.8452 13.4784C16.7506 13.25 16.7258 12.9986 16.774 12.7562C16.8223 12.5137 16.9413 12.291 17.1161 12.1161C17.291 11.9413 17.5137 11.8223 17.7562 11.774C17.9986 11.7258 18.25 11.7506 18.4784 11.8452C18.7068 11.9398 18.902 12.1 19.0394 12.3056C19.1767 12.5111 19.25 12.7528 19.25 13C19.25 13.3315 19.1183 13.6495 18.8839 13.8839C18.6495 14.1183 18.3315 14.25 18 14.25Z" fill="#B3B3B3"/>
</svg>
