<svg width="30" height="34" viewBox="0 0 30 34" fill="none" xmlns="http://www.w3.org/2000/svg">
<path d="M11.8333 30.2498H18.1667C18.1667 31.9915 16.7417 33.4165 15 33.4165C13.2583 33.4165 11.8333 31.9915 11.8333 30.2498ZM29.25 27.0832V28.6665H0.75V27.0832L3.91667 23.9165V14.4165C3.91667 9.50817 7.08333 5.23317 11.8333 3.80817V3.33317C11.8333 1.5915 13.2583 0.166504 15 0.166504C16.7417 0.166504 18.1667 1.5915 18.1667 3.33317V3.80817C22.9167 5.23317 26.0833 9.50817 26.0833 14.4165V23.9165L29.25 27.0832ZM22.9167 14.4165C22.9167 9.98317 19.4333 6.49984 15 6.49984C10.5667 6.49984 7.08333 9.98317 7.08333 14.4165V25.4998H22.9167V14.4165Z" fill="#595959"/>
</svg>
