<svg width="32" height="34" viewBox="0 0 32 34" fill="none" xmlns="http://www.w3.org/2000/svg">
<path d="M16 21.5C18.4853 21.5 20.5 19.4853 20.5 17C20.5 14.5147 18.4853 12.5 16 12.5C13.5147 12.5 11.5 14.5147 11.5 17C11.5 19.4853 13.5147 21.5 16 21.5Z" stroke="#595959" stroke-width="2.5"/>
<path d="M18.6472 2.228C18.0967 2 17.3977 2 15.9997 2C14.6017 2 13.9027 2 13.3522 2.228C12.988 2.37877 12.657 2.59984 12.3783 2.87859C12.0995 3.15733 11.8785 3.48827 11.7277 3.8525C11.5897 4.187 11.5342 4.5785 11.5132 5.147C11.5034 5.55789 11.3896 5.9596 11.1824 6.31453C10.9751 6.66947 10.6812 6.96604 10.3282 7.1765C9.96941 7.37716 9.56558 7.48351 9.1545 7.48561C8.74341 7.48771 8.33852 7.38548 7.9777 7.1885C7.4737 6.9215 7.1092 6.7745 6.7477 6.7265C5.95918 6.62281 5.16175 6.83646 4.5307 7.3205C4.0597 7.685 3.7087 8.2895 3.0097 9.5C2.3107 10.7105 1.9597 11.315 1.8832 11.9075C1.83165 12.2982 1.85758 12.6952 1.9595 13.0758C2.06142 13.4565 2.23734 13.8133 2.4772 14.126C2.6992 14.414 3.0097 14.6555 3.4912 14.9585C4.2007 15.404 4.6567 16.163 4.6567 17C4.6567 17.837 4.2007 18.596 3.4912 19.04C3.0097 19.3445 2.6977 19.586 2.4772 19.874C2.23734 20.1867 2.06142 20.5435 1.9595 20.9242C1.85758 21.3048 1.83165 21.7018 1.8832 22.0925C1.9612 22.6835 2.3107 23.2895 3.0082 24.5C3.7087 25.7105 4.0582 26.315 4.5307 26.6795C4.84335 26.9194 5.2002 27.0953 5.58086 27.1972C5.96151 27.2991 6.35852 27.325 6.7492 27.2735C7.1092 27.2255 7.4737 27.0785 7.9777 26.8115C8.33852 26.6145 8.74341 26.5123 9.1545 26.5144C9.56558 26.5165 9.96941 26.6228 10.3282 26.8235C11.0527 27.2435 11.4832 28.016 11.5132 28.853C11.5342 29.423 11.5882 29.813 11.7277 30.1475C11.8785 30.5117 12.0995 30.8427 12.3783 31.1214C12.657 31.4002 12.988 31.6212 13.3522 31.772C13.9027 32 14.6017 32 15.9997 32C17.3977 32 18.0967 32 18.6472 31.772C19.0114 31.6212 19.3424 31.4002 19.6211 31.1214C19.8999 30.8427 20.1209 30.5117 20.2717 30.1475C20.4097 29.813 20.4652 29.423 20.4862 28.853C20.5162 28.016 20.9467 27.242 21.6712 26.8235C22.03 26.6228 22.4338 26.5165 22.8449 26.5144C23.256 26.5123 23.6609 26.6145 24.0217 26.8115C24.5257 27.0785 24.8902 27.2255 25.2502 27.2735C25.6409 27.325 26.0379 27.2991 26.4185 27.1972C26.7992 27.0953 27.156 26.9194 27.4687 26.6795C27.9412 26.3165 28.2907 25.7105 28.9897 24.5C29.6887 23.2895 30.0397 22.685 30.1162 22.0925C30.1677 21.7018 30.1418 21.3048 30.0399 20.9242C29.938 20.5435 29.7621 20.1867 29.5222 19.874C29.3002 19.586 28.9897 19.3445 28.5082 19.0415C28.1571 18.8276 27.866 18.5281 27.6622 18.1711C27.4583 17.814 27.3484 17.4111 27.3427 17C27.3427 16.163 27.7987 15.404 28.5082 14.96C28.9897 14.6555 29.3017 14.414 29.5222 14.126C29.7621 13.8133 29.938 13.4565 30.0399 13.0758C30.1418 12.6952 30.1677 12.2982 30.1162 11.9075C30.0382 11.3165 29.6887 10.7105 28.9912 9.5C28.2907 8.2895 27.9412 7.685 27.4687 7.3205C27.156 7.08064 26.7992 6.90472 26.4185 6.8028C26.0379 6.70088 25.6409 6.67495 25.2502 6.7265C24.8902 6.7745 24.5257 6.9215 24.0202 7.1885C23.6596 7.38522 23.2549 7.48729 22.8442 7.48519C22.4334 7.4831 22.0298 7.37689 21.6712 7.1765C21.3182 6.96604 21.0243 6.66947 20.817 6.31453C20.6098 5.9596 20.496 5.55789 20.4862 5.147C20.4652 4.577 20.4112 4.187 20.2717 3.8525C20.1209 3.48827 19.8999 3.15733 19.6211 2.87859C19.3424 2.59984 19.0114 2.37877 18.6472 2.228Z" stroke="#595959" stroke-width="2.5"/>
</svg>
