<svg width="24" height="24" viewBox="0 0 24 24" fill="none" xmlns="http://www.w3.org/2000/svg">
<g clip-path="url(#clip0_6_58)">
<path d="M21.75 0.562587H2.25C1.80756 0.558084 1.3814 0.729282 1.06504 1.03862C0.74867 1.34795 0.56794 1.77016 0.5625 2.21259V21.7913C0.568923 22.2331 0.750087 22.6544 1.06634 22.9629C1.3826 23.2714 1.8082 23.4421 2.25 23.4376H21.75C22.1925 23.4411 22.6183 23.2693 22.9345 22.9598C23.2507 22.6503 23.4316 22.2282 23.4375 21.7857V2.20696C23.4296 1.76583 23.2479 1.34564 22.9319 1.03772C22.6159 0.729808 22.1912 0.559058 21.75 0.562587Z" fill="#0076B2"/>
<path d="M3.94969 9.13696H7.34531V20.0626H3.94969V9.13696ZM5.64844 3.69946C6.0379 3.69946 6.41861 3.81498 6.74241 4.03139C7.06621 4.2478 7.31855 4.55539 7.4675 4.91524C7.61646 5.27509 7.65534 5.67104 7.57922 6.05299C7.5031 6.43494 7.31541 6.78573 7.03989 7.06099C6.76437 7.33625 6.4134 7.52361 6.03137 7.59936C5.64935 7.67512 5.25344 7.63586 4.89373 7.48656C4.53402 7.33726 4.22667 7.08463 4.01057 6.76063C3.79447 6.43662 3.67932 6.0558 3.67969 5.66634C3.68019 5.14452 3.88783 4.64424 4.25698 4.27543C4.62614 3.90663 5.12662 3.69946 5.64844 3.69946ZM9.47531 9.13696H12.7303V10.637H12.7753C13.2291 9.77821 14.3353 8.87259 15.9872 8.87259C19.4259 8.86509 20.0634 11.1282 20.0634 14.0626V20.0626H16.6678V14.747C16.6678 13.4813 16.6453 11.852 14.9034 11.852C13.1616 11.852 12.8653 13.232 12.8653 14.6645V20.0626H9.47531V9.13696Z" fill="white"/>
</g>
<defs>
<clipPath id="clip0_6_58">
<rect width="24" height="24" fill="white"/>
</clipPath>
</defs>
</svg>
