<svg width="29" height="20" viewBox="0 0 29 20" fill="none" xmlns="http://www.w3.org/2000/svg">
<g clip-path="url(#clip0_6_61)">
<path d="M27.8182 3.11944C27.655 2.51651 27.3368 1.96683 26.8951 1.52514C26.4535 1.08346 25.9038 0.765179 25.3009 0.602C23.0935 0 14.2098 0 14.2098 0C14.2098 0 5.32553 0.0182222 3.1182 0.620222C2.51525 0.783411 1.96558 1.10171 1.52391 1.54341C1.08225 1.98512 0.763999 2.53482 0.600863 3.13778C-0.0668033 7.05978 -0.325803 13.036 0.619197 16.8011C0.782349 17.4041 1.1006 17.9537 1.54227 18.3954C1.98393 18.8371 2.5336 19.1554 3.13653 19.3186C5.34386 19.9206 14.2279 19.9206 14.2279 19.9206C14.2279 19.9206 23.1118 19.9206 25.319 19.3186C25.9219 19.1554 26.4716 18.8371 26.9133 18.3954C27.355 17.9538 27.6733 17.4041 27.8364 16.8011C28.5406 12.8736 28.7576 6.901 27.8182 3.11944Z" fill="#FF0000"/>
<path d="M11.3828 14.229L18.7526 9.96032L11.3828 5.69165V14.229Z" fill="white"/>
</g>
<defs>
<clipPath id="clip0_6_61">
<rect width="28.45" height="20" fill="white"/>
</clipPath>
</defs>
</svg>
