<svg width="20" height="20" viewBox="0 0 20 20" fill="none" xmlns="http://www.w3.org/2000/svg">
<path d="M6.41602 19.1668C5.91185 19.1668 5.4804 18.9875 5.12168 18.6287C4.76296 18.27 4.58329 17.8383 4.58268 17.3335C4.58207 16.8287 4.76174 16.3973 5.12168 16.0392C5.48163 15.6811 5.91307 15.5014 6.41602 15.5002C6.91896 15.4989 7.35071 15.6786 7.71127 16.0392C8.07182 16.3997 8.25118 16.8312 8.24935 17.3335C8.24752 17.8358 8.06815 18.2676 7.71127 18.6287C7.35438 18.9899 6.92263 19.1693 6.41602 19.1668ZM15.5827 19.1668C15.0785 19.1668 14.6471 18.9875 14.2883 18.6287C13.9296 18.27 13.75 17.8383 13.7493 17.3335C13.7487 16.8287 13.9284 16.3973 14.2883 16.0392C14.6483 15.6811 15.0797 15.5014 15.5827 15.5002C16.0856 15.4989 16.5174 15.6786 16.8779 16.0392C17.2385 16.3997 17.4178 16.8312 17.416 17.3335C17.4142 17.8358 17.2348 18.2676 16.8779 18.6287C16.521 18.9899 16.0893 19.1693 15.5827 19.1668ZM5.63685 4.50016L7.83685 9.0835H14.2535L16.7743 4.50016H5.63685ZM4.76602 2.66683H18.2868C18.6382 2.66683 18.9056 2.82358 19.0889 3.13708C19.2723 3.45058 19.2799 3.76744 19.1118 4.08766L15.8577 9.95433C15.6896 10.2599 15.4644 10.4967 15.1821 10.6647C14.8998 10.8328 14.5902 10.9168 14.2535 10.9168H7.42435L6.41602 12.7502H17.416V14.5835H6.41602C5.72852 14.5835 5.20907 14.2819 4.85768 13.6787C4.50629 13.0756 4.49102 12.4758 4.81185 11.8793L6.04935 9.6335L2.74935 2.66683H0.916016V0.833496H3.89518L4.76602 2.66683Z" fill="black"/>
</svg>
