<svg width="20" height="17" viewBox="0 0 20 17" fill="none" xmlns="http://www.w3.org/2000/svg">
<path d="M11.0003 4.05L11.0003 1C11.0003 0.734784 11.1057 0.48043 11.2932 0.292893C11.4807 0.105357 11.7351 0 12.0003 0C12.2626 0.00110462 12.514 0.105256 12.7003 0.29L19.7003 7.29C19.794 7.38296 19.8684 7.49356 19.9192 7.61542C19.97 7.73728 19.9961 7.86799 19.9961 8C19.9961 8.13201 19.97 8.26272 19.9192 8.38458C19.8684 8.50644 19.794 8.61704 19.7003 8.71L12.7003 15.71C12.5599 15.8476 12.3821 15.9408 12.189 15.9779C11.996 16.015 11.7963 15.9944 11.6149 15.9186C11.4335 15.8429 11.2785 15.7153 11.1692 15.5519C11.0598 15.3886 11.0011 15.1966 11.0003 15V11.9L10.1503 11.9C8.57038 11.8764 7.00425 12.197 5.56063 12.8393C4.117 13.4817 2.83046 14.4306 1.7903 15.62C1.66494 15.7869 1.49051 15.9104 1.29146 15.9731C1.09241 16.0359 0.8787 16.0348 0.680296 15.97C0.47839 15.9019 0.30353 15.771 0.181208 15.5965C0.0588856 15.422 -0.00449753 15.213 0.000295639 15C0.000295639 5.88 8.0803 4.32 11.0003 4.05ZM10.1503 9.88C10.8191 9.8787 11.4873 9.92213 12.1503 10.01C12.387 10.0459 12.603 10.1656 12.759 10.3473C12.915 10.5289 13.0006 10.7606 13.0003 11V12.59L17.5803 8L13.0003 3.41L13.0003 5C13.0003 5.26522 12.8949 5.51957 12.7074 5.70711C12.5199 5.89464 12.2655 6 12.0003 6C11.0903 6 3.8903 6.2 2.3303 12.43C4.5946 10.7606 7.33713 9.86626 10.1503 9.88Z" fill="black"/>
</svg>
