<svg width="24" height="24" viewBox="0 0 24 24" fill="none" xmlns="http://www.w3.org/2000/svg">
<path d="M0.857422 22.7829H13.7146M12.0003 22.7829V18.4972H2.57171V22.7829M15.4289 9.92574L23.1431 17.64M13.3494 1.71774L7.20371 7.86345C6.88233 8.18493 6.70179 8.62089 6.70179 9.07545C6.70179 9.53002 6.88233 9.96598 7.20371 10.2875L9.91914 13.0029C10.2406 13.3243 10.6766 13.5048 11.1311 13.5048C11.5857 13.5048 12.0217 13.3243 12.3431 13.0029L18.4889 6.85717C18.8102 6.53569 18.9908 6.09974 18.9908 5.64517C18.9908 5.1906 18.8102 4.75464 18.4889 4.43317L15.7717 1.71774C15.4502 1.39636 15.0143 1.21582 14.5597 1.21582C14.1051 1.21582 13.6692 1.39636 13.3477 1.71774H13.3494Z" stroke="black" stroke-width="2" stroke-linecap="round" stroke-linejoin="round"/>
</svg>
