<svg width="20" height="20" viewBox="0 0 20 20" fill="none" xmlns="http://www.w3.org/2000/svg">
<path d="M5.72 14.4563L7.481 13.9483L18.084 3.21833C18.1676 3.13263 18.2142 3.01747 18.2136 2.89772C18.2131 2.77797 18.1654 2.66325 18.081 2.57833L17.446 1.93633C17.405 1.89417 17.3559 1.8606 17.3018 1.83759C17.2477 1.81458 17.1895 1.80258 17.1306 1.8023C17.0718 1.80203 17.0135 1.81347 16.9591 1.83597C16.9048 1.85846 16.8554 1.89156 16.814 1.93333L6.239 12.6353L5.72 14.4563ZM18.703 0.664335L19.338 1.30733C20.214 2.19433 20.222 3.62533 19.354 4.50333L8.428 15.5613L4.664 16.6453C4.55021 16.6773 4.43123 16.6866 4.31386 16.6726C4.1965 16.6586 4.08303 16.6216 3.97996 16.5637C3.87688 16.5059 3.78621 16.4283 3.71313 16.3354C3.64004 16.2425 3.58597 16.1361 3.554 16.0223C3.50496 15.8573 3.50426 15.6817 3.552 15.5163L4.647 11.6763L15.544 0.647335C15.7512 0.438693 15.9979 0.273396 16.2696 0.161087C16.5414 0.0487776 16.8328 -0.00829685 17.1269 -0.00680752C17.4209 -0.0053182 17.7117 0.0547051 17.9823 0.169761C18.2529 0.284818 18.4979 0.453604 18.703 0.664335ZM7.184 1.81733C7.68 1.81733 8.082 2.22433 8.082 2.72633C8.08279 2.845 8.06018 2.96266 8.01547 3.07259C7.97076 3.18251 7.90481 3.28255 7.82141 3.36697C7.73801 3.45139 7.63879 3.51854 7.52942 3.56459C7.42004 3.61064 7.30267 3.63468 7.184 3.63533H3.592C2.6 3.63533 1.796 4.44934 1.796 5.45233V16.3583C1.796 17.3623 2.6 18.1763 3.592 18.1763H14.368C15.36 18.1763 16.165 17.3623 16.165 16.3583V12.7233C16.165 12.2213 16.567 11.8143 17.063 11.8143C17.559 11.8143 17.961 12.2213 17.961 12.7243V16.3583C17.961 18.3663 16.352 19.9943 14.368 19.9943H3.592C1.608 19.9943 0 18.3663 0 16.3583V5.45233C0 3.44533 1.608 1.81733 3.592 1.81733H7.184Z" fill="black"/>
</svg>
